<?xml version="1.0" encoding="utf-8"?>
<!-- Svg Vector Icons : http://www.onlinewebfonts.com/icon -->
<!DOCTYPE svg PUBLIC "-//W3C//DTD SVG 1.1//EN" "http://www.w3.org/Graphics/SVG/1.1/DTD/svg11.dtd">
<svg version="1.1" xmlns="http://www.w3.org/2000/svg" xmlns:xlink="http://www.w3.org/1999/xlink" x="0px" y="0px" viewBox="0 0 1000 1000" enable-background="new 0 0 1000 1000" xml:space="preserve">
<metadata> Svg Vector Icons : http://www.onlinewebfonts.com/icon </metadata>
<g><g transform="translate(0.000000,512.000000) scale(0.100000,-0.100000)"><path d="M4607.4,5004.5c-736-59.4-1487.4-304.8-2139.1-699.6c-628.7-379.5-1274.7-1025.5-1654.2-1654.2C-347.5,733.9-71.5-1673.6,1492.6-3281.8c415.9-427.4,853-745.6,1370.5-998.6c348.9-170.6,590.4-260.7,922-346.9c1320.7-337.4,2718-111.2,3850.8,626.8c304.8,197.4,506,358.4,774.4,621c1268.9,1236.3,1771.1,3009.4,1336,4713.4c-86.3,331.6-176.3,573.1-346.9,922c-237.7,486.9-509.8,872.1-900.9,1272.7C7469.2,4584.7,6056.5,5121.4,4607.4,5004.5z M5709.6,4670.9c1832.4-291.4,3291.1-1612,3747.3-3390.8c109.3-429.4,134.2-634.5,134.2-1161.6c0-358.4-9.6-521.4-34.5-690c-291.4-1845.9-1608.2-3308.4-3394.6-3766.5c-429.3-109.3-634.4-134.2-1161.6-134.2c-527.1,0-732.2,24.9-1161.6,134.2C2217.2-3922,959.8-2664.6,543.8-1043C432.7-611.7,409.7-408.5,409.7,118.6c0,525.2,23,722.6,132.3,1157.7c203.2,801.2,605.7,1506.6,1199.9,2100.8c734.1,734.1,1650.4,1180.7,2689.2,1313C4716.7,4726.5,5429.7,4715,5709.6,4670.9z"/><path d="M4760.8,1469.9c-287.5-53.7-525.2-178.3-730.3-381.4c-299-300.9-448.5-732.2-392.9-1134.7c46-327.8,174.4-586.6,404.4-814.6c116.9-116.9,184-164.9,327.8-235.8c243.4-118.8,383.4-153.3,630.6-153.3c247.3,1.9,391,36.4,630.6,153.3c145.7,72.8,207,116.9,337.4,247.3c130.3,130.3,174.4,191.7,247.3,337.4c116.9,239.6,151.4,383.4,153.3,630.6c0,247.3-34.5,387.2-153.3,630.6c-189.8,387.2-571.2,659.4-1017.8,728.4C5027.2,1504.4,4933.3,1502.5,4760.8,1469.9z"/></g></g>
</svg>